<svg width="16" height="16" viewBox="0 0 16 16" fill="none" xmlns="http://www.w3.org/2000/svg">
<path fill-rule="evenodd" clip-rule="evenodd" d="M4.64689 8.3541C4.60033 8.30766 4.56339 8.25248 4.53818 8.19173C4.51297 8.13099 4.5 8.06587 4.5 8.0001C4.5 7.93433 4.51297 7.86921 4.53818 7.80847C4.56339 7.74772 4.60033 7.69255 4.64689 7.6461L10.6469 1.6461C10.7408 1.55221 10.8681 1.49947 11.0009 1.49947C11.1337 1.49947 11.261 1.55221 11.3549 1.6461C11.4488 1.73999 11.5015 1.86733 11.5015 2.0001C11.5015 2.13288 11.4488 2.26021 11.3549 2.3541L5.70789 8.0001L11.3549 13.6461C11.4488 13.74 11.5015 13.8673 11.5015 14.0001C11.5015 14.1329 11.4488 14.2602 11.3549 14.3541C11.261 14.448 11.1337 14.5007 11.0009 14.5007C10.8681 14.5007 10.7408 14.448 10.6469 14.3541L4.64689 8.3541Z" fill="white"/>
</svg>
