<svg width="15" height="10" viewBox="0 0 15 10" fill="none" xmlns="http://www.w3.org/2000/svg">
<path d="M0.523438 5C0.523438 5.11189 0.570354 5.21919 0.653866 5.29831C0.737378 5.37743 0.850646 5.42188 0.96875 5.42188H14.0312C14.1494 5.42188 14.2626 5.37743 14.3461 5.29831C14.4296 5.21919 14.4766 5.11189 14.4766 5C14.4766 4.88811 14.4296 4.78081 14.3461 4.70169C14.2626 4.62257 14.1494 4.57812 14.0312 4.57812H0.96875C0.850646 4.57812 0.737378 4.62257 0.653866 4.70169C0.570354 4.78081 0.523438 4.88811 0.523438 5ZM14.0312 0.921875H0.96875C0.850646 0.921875 0.737378 0.877427 0.653866 0.79831C0.570354 0.719194 0.523438 0.611888 0.523438 0.5C0.523438 0.388112 0.570354 0.280806 0.653866 0.201689C0.737378 0.122572 0.850646 0.078125 0.96875 0.078125H14.0312C14.1494 0.078125 14.2626 0.122572 14.3461 0.201689C14.4296 0.280806 14.4766 0.388112 14.4766 0.5C14.4766 0.611888 14.4296 0.719194 14.3461 0.79831C14.2626 0.877427 14.1494 0.921875 14.0312 0.921875ZM0.96875 9.07812H14.0312C14.1494 9.07812 14.2626 9.12257 14.3461 9.20169C14.4296 9.28081 14.4766 9.38811 14.4766 9.5C14.4766 9.61189 14.4296 9.71919 14.3461 9.79831C14.2626 9.87743 14.1494 9.92188 14.0312 9.92188H0.96875C0.850646 9.92188 0.737378 9.87743 0.653866 9.79831C0.570354 9.71919 0.523438 9.61189 0.523438 9.5C0.523438 9.38811 0.570354 9.28081 0.653866 9.20169C0.737378 9.12257 0.850646 9.07812 0.96875 9.07812Z" fill="black"/>
</svg>
