<svg width="164" height="161" viewBox="0 0 164 161" fill="none" xmlns="http://www.w3.org/2000/svg">
<path d="M0.166663 14.9014L55.6513 0.314331C60.7206 -1.01842 65.9108 2.00962 67.2453 7.07849C68.5802 12.1486 65.5521 17.3409 60.482 18.6758L0 34.5994L0.166663 14.9014Z" fill="#0065FD"/>
<path d="M0 70.1719L126.661 37.4015C139.976 33.9567 153.57 41.9235 157.072 55.2233C160.584 68.5632 152.617 82.2245 139.277 85.7366L7.14769e-05 122.405L0 70.1719Z" fill="#F2CB00"/>
<path d="M0 160.538L88.5538 137.224C92.0338 136.308 94.1123 132.744 93.196 129.264C92.2805 125.786 88.7207 123.708 85.2422 124.62L1.71713e-09 146.969L0 160.538Z" fill="#FD004C"/>
</svg>
