<svg width="165" height="161" viewBox="0 0 165 161" fill="none" xmlns="http://www.w3.org/2000/svg">
<path d="M164.635 145.637L109.15 160.224C104.081 161.557 98.891 158.529 97.5564 153.46C96.2216 148.39 99.2496 143.197 104.32 141.863L164.802 125.939L164.635 145.637Z" fill="#0065FD"/>
<path d="M164.802 90.3663L38.1405 123.137C24.826 126.582 11.2317 118.615 7.7302 105.315C4.21808 91.9751 12.1851 78.3138 25.525 74.8017L164.802 38.1331L164.802 90.3663Z" fill="#FD004C"/>
<path d="M164.802 -2.67029e-05L76.248 23.3143C72.7679 24.2305 70.6895 27.7944 71.6057 31.2745C72.5213 34.7521 76.081 36.8305 79.5595 35.9185L164.802 13.5693L164.802 -2.67029e-05Z" fill="#F2CB00"/>
</svg>
